<svg width="139" height="52" viewBox="0 0 139 52" fill="none" xmlns="http://www.w3.org/2000/svg">
<circle cx="19" cy="26" r="19" fill="#FF7F57"/>
<circle cx="45" cy="26" r="26" fill="#FFC629"/>
<path d="M48.56 41H41.212L40.376 36.688H35.184L34.348 41H27.352L32.368 13.676H43.544L48.56 41ZM39.54 31.54L38 21.772H37.692L36.152 31.54H39.54ZM71.1781 26.744C71.1781 36.248 67.4234 41 59.9141 41H50.8501V13.676H60.0901C64.1087 13.676 66.9541 14.8053 68.6261 17.064C70.3274 19.2933 71.1781 22.52 71.1781 26.744ZM59.7821 34.664C61.3367 34.664 62.3341 34.1213 62.7741 33.036C63.2434 31.9213 63.4781 30.0733 63.4781 27.492C63.4781 24.8813 63.2287 23.0333 62.7301 21.948C62.2607 20.8627 61.2341 20.32 59.6501 20.32H58.3301V34.664H59.7821ZM100.454 41H93.5462V26.744H93.1502L90.5542 41H83.4702L81.0062 26.744H80.5662V41H73.7462L74.6702 13.676H84.5702L87.0342 28.46H87.3862L89.7622 13.676H99.5302L100.454 41ZM111.965 41H104.485V13.676H111.965V41ZM136.223 41H129.007L123.331 28.284H122.979V41H116.291V13.676H123.727L129.139 26.788H129.491V13.676H136.223V41Z" fill="white"/>
</svg>
